<svg xmlns="http://www.w3.org/2000/svg" viewBox="0 0 94.37 132.28"><g id="Layer_2" data-name="Layer 2"><g id="Layer_1-2" data-name="Layer 1"><path d="M89.39,28.28H64.59v-9a21.47,21.47,0,0,0-1.79-8.8C60.79,6,56.47.49,47.27,0,35.9-.55,31.4,7.74,29.72,12.73a22,22,0,0,0-1.13,7.07v8.48H5.8L0,132.28H94.37ZM31.59,19.8a18.94,18.94,0,0,1,1-6.11C34.29,8.58,38.24,2.59,47.12,3c6.16.31,10.52,3.23,12.94,8.7a18.6,18.6,0,0,1,1.53,7.58v9h-30ZM8.64,31.28h20v8.64a4,4,0,1,0,3,.41v-9h30v9a4,4,0,1,0,3-.41V31.28H86.53l4.7,98H3.17Z"/></g></g></svg>