<svg xmlns="http://www.w3.org/2000/svg" viewBox="0 0 271.29 74.42"><g id="Layer_2" data-name="Layer 2"><g id="Layer_1-2" data-name="Layer 1"><path d="M23.57,0H0V73.16H20.55a57.28,57.28,0,0,0,14.72-1.51,32.05,32.05,0,0,0,10.3-5A34.28,34.28,0,0,0,56.5,53.87a38,38,0,0,0,3.8-17q0-16.42-10.13-26.63T23.57,0ZM42.48,56.25q-7.11,7.11-19.32,7.11H10.3V10H21.21q13.31,0,20.85,7.13t7.53,19.8Q49.59,49.14,42.48,56.25Z"/><path d="M79,24.27V17.89H69.64V73.16h10V42.41q0-7.63,2.89-11.08t9.57-3.94V17a15.4,15.4,0,0,0-7.41,1.84A16.76,16.76,0,0,0,79,24.27Z"/><rect x="92.76" y="60.8" width="10.05" height="12.36"/><polygon points="151.25 0 113.31 0 113.31 9.85 126.98 9.85 126.98 73.16 137.58 73.16 137.58 9.85 151.25 9.85 151.25 0"/><path d="M196.92,24.57a26.13,26.13,0,0,0-8.69-6.08,26.66,26.66,0,0,0-10.45-2,28.83,28.83,0,0,0-11.28,2.09A27.25,27.25,0,0,0,157.38,25a27.84,27.84,0,0,0-5.88,9.2,29.72,29.72,0,0,0-2.06,11.05q0,12.51,8.24,20.83t20.7,8.32a24.87,24.87,0,0,0,10-2,26.11,26.11,0,0,0,8.52-6v6.78H207V17.89H196.92Zm-5.1,34.65a17.62,17.62,0,0,1-12.94,5.7,18.26,18.26,0,0,1-13.59-5.68,19.32,19.32,0,0,1-5.55-14.07,18.92,18.92,0,0,1,18.94-19,17.64,17.64,0,0,1,13.19,5.8,19.47,19.47,0,0,1,5.55,14A18.41,18.41,0,0,1,191.82,59.22Z"/><path d="M228,24.27V17.89h-9.34V73.16h10V42.41q0-7.63,2.89-11.08T241,27.39V17a15.37,15.37,0,0,0-7.41,1.84A16.88,16.88,0,0,0,228,24.27Z"/><polygon points="263.45 0 253.55 0 253.55 17.89 245.71 17.89 245.71 26.93 253.55 26.93 253.55 73.16 263.45 73.16 263.45 26.93 271.29 26.93 271.29 17.89 263.45 17.89 263.45 0"/></g></g></svg>